<?xml version="1.0" encoding="UTF-8"?>
<svg version="1.1" xmlns="http://www.w3.org/2000/svg" width="1024" height="1024">
<path d="M0 0 C337.92 0 675.84 0 1024 0 C1024 337.92 1024 675.84 1024 1024 C686.08 1024 348.16 1024 0 1024 C0 686.08 0 348.16 0 0 Z " fill="#2B3238" transform="translate(0,0)"/>
<path d="M0 0 C1.11644823 -0.00594224 2.23289645 -0.01188449 3.38317645 -0.0180068 C7.10172417 -0.03526737 10.82014229 -0.03838748 14.53872681 -0.04138184 C17.21348668 -0.05064554 19.88823513 -0.06065553 22.56298828 -0.07147217 C29.81036085 -0.0985162 37.05771111 -0.11066566 44.30512571 -0.11949348 C48.83166309 -0.12503257 53.35819201 -0.13350918 57.88472366 -0.14250183 C70.42496134 -0.16685863 82.9651923 -0.18747097 95.50545311 -0.19425201 C96.70670232 -0.19491071 96.70670232 -0.19491071 97.93221918 -0.19558272 C99.13624371 -0.19623755 99.13624371 -0.19623755 100.36459196 -0.19690561 C101.99099628 -0.19779253 103.61740061 -0.19868566 105.24380493 -0.19958496 C106.05054789 -0.20002782 106.85729085 -0.20047068 107.68848057 -0.20092696 C120.78642755 -0.20883821 133.88415306 -0.24380523 146.98201434 -0.29030401 C160.43854677 -0.33769037 173.8949678 -0.36265341 187.35158503 -0.36498785 C194.90372677 -0.36682235 202.45557882 -0.3783536 210.00764084 -0.41462708 C216.4310369 -0.44537273 222.85405351 -0.45570305 229.27750914 -0.43915087 C232.555285 -0.4313204 235.83213341 -0.43652189 239.10984802 -0.46126556 C242.65999952 -0.48650244 246.20816624 -0.47506615 249.75830078 -0.45410156 C250.79816615 -0.47021437 251.83803153 -0.48632718 252.90940797 -0.50292826 C255.57571442 -0.46590961 257.91699352 -0.38793918 260.49819946 0.28088379 C263.04493141 3.1869278 263.04493141 3.1869278 264.49819946 6.28088379 C265.783064 7.72446688 267.07428872 9.1624261 268.37319946 10.59338379 C271.45102348 14.50821777 271.45102348 14.50821777 271.64273071 17.64807129 C270.69046711 22.48264035 268.77013048 26.57843553 265.49819946 30.28088379 C261.04357381 33.10785776 256.6845559 34.55356627 251.62539673 36.03210449 C242.27867331 38.77293754 235.03172614 41.91391996 229.52163696 50.38244629 C223.52746603 61.50140458 223.12468031 74.80302125 223.12759399 87.1439209 C223.12321046 89.21319403 223.08670844 91.28034288 223.04898071 93.34924316 C222.95537963 104.43449817 224.34093447 115.83454946 231.76773071 124.58166504 C238.78263371 131.46988808 247.40964929 134.38275681 256.49234009 137.5748291 C268.70489213 141.87359985 268.70489213 141.87359985 271.74819946 147.65588379 C272.59929181 150.63470702 272.64159765 153.19782284 272.49819946 156.28088379 C269.09076716 158.37402078 266.6926849 158.3909179 262.74819946 158.15588379 C256.98521416 158.08568908 253.07651995 158.71065648 248.49819946 162.28088379 C243.99936433 167.72186217 242.46877911 173.48894085 241.12319946 180.28088379 C239.48983214 187.65423606 237.85879765 193.58653803 231.49819946 198.28088379 C227.94205617 200.05895544 224.32576727 199.90187562 220.49819946 199.28088379 C217.51155315 197.93649044 214.77310336 196.39673422 211.97866821 194.69104004 C207.09309339 191.91357152 202.01771396 191.55745228 196.49819946 192.28088379 C184.61796932 195.90499732 174.32784166 210.58840528 167.49819946 220.28088379 C165.40784857 226.55193645 165.72254848 232.39333049 168.62319946 238.34338379 C170.46611558 241.71766286 172.5621224 244.79205854 174.81069946 247.90588379 C177.83997061 252.34776842 178.47415751 254.95747623 177.49819946 260.28088379 C173.73540385 265.41196872 168.74532522 267.31345104 162.84976196 269.06994629 C155.84029994 271.27840693 151.50107916 274.01398467 147.49819946 280.28088379 C145.86897574 283.80471841 145.24257651 286.57484397 145.23257446 290.44885254 C145.22999634 291.42531738 145.22741821 292.40178223 145.22476196 293.40783691 C145.23249634 294.41781738 145.24023071 295.42779785 145.24819946 296.46838379 C145.24046509 297.45902832 145.23273071 298.44967285 145.22476196 299.47033691 C145.24791191 308.29625526 145.50004424 317.33565143 151.49819946 324.28088379 C156.60832741 329.29858049 162.57444688 331.75625591 169.21817017 334.10119629 C173.17095589 335.53950157 175.89158342 336.93775462 178.49819946 340.28088379 C179.65520742 346.1711061 178.2586345 349.04657708 175.12319946 354.09338379 C171.30533494 360.27505852 168.34451992 366.33202366 170.06802368 373.72521973 C172.60429835 380.36598973 175.94440778 384.32744103 181.31069946 388.90588379 C182.6957769 390.12319128 184.07730761 391.34454637 185.45523071 392.56994629 C186.12860474 393.16839355 186.80197876 393.76684082 187.49575806 394.38342285 C190.20397847 396.94966146 192.59971984 399.73074574 194.98623657 402.59484863 C198.51974128 406.53516569 202.33379324 407.49893706 207.43569946 407.90588379 C213.44705356 407.79106939 217.82876087 405.44981784 223.06777954 402.79577637 C228.35018802 400.17935782 231.69548963 399.25137075 237.49819946 400.28088379 C245.66406048 405.65055603 247.64160849 415.98240442 249.92007446 425.00354004 C250.3718515 426.78317524 250.91757876 428.53902169 251.49819946 430.28088379 C253.92203023 431.45041794 253.92203023 431.45041794 256.49819946 432.28088379 C257.15819946 432.61088379 257.81819946 432.94088379 258.49819946 433.28088379 C268.35792462 434.62094564 278.29769282 435.47744198 288.24819946 435.65588379 C288.96105103 435.68174561 289.67390259 435.70760742 290.40835571 435.73425293 C297.28064926 435.75932839 302.42238896 433.31056517 307.31069946 428.53088379 C310.33615099 424.03592723 311.91631766 419.72005113 313.17007446 414.46447754 C314.96499668 406.97566317 314.96499668 406.97566317 317.56069946 403.59338379 C321.94828441 401.63297349 325.77585182 401.4203355 330.49819946 402.28088379 C332.65444946 403.40979004 332.65444946 403.40979004 334.74819946 404.78088379 C340.5352501 408.43531827 346.86943532 408.06510869 353.49819946 407.28088379 C355.828038 406.36183139 355.828038 406.36183139 357.49819946 405.28088379 C357.49819946 404.62088379 357.49819946 403.96088379 357.49819946 403.28088379 C359.35444946 402.81682129 359.35444946 402.81682129 361.24819946 402.34338379 C371.8730433 398.77945979 381.81442904 389.86486967 387.67788696 380.37072754 C389.7773675 375.02205094 389.54633709 368.71746348 387.29507446 363.48400879 C385.11728039 359.85435201 382.68330683 356.52444611 380.12319946 353.15588379 C377.82860878 349.09622335 377.90939092 346.91775109 378.49819946 342.28088379 C380.68149437 338.69404215 382.66616246 336.87192389 386.49819946 335.28088379 C388.36538153 334.96056077 390.24224654 334.6941974 392.12319946 334.46838379 C399.14130885 333.36885135 405.90837692 331.42006263 410.56069946 325.78088379 C412.41558842 320.83451322 412.61751502 316.27456411 412.59585571 311.01135254 C412.59444077 310.33034988 412.59302582 309.64934723 412.59156799 308.94770813 C412.58600244 306.78788732 412.57345649 304.6281729 412.56069946 302.46838379 C412.55568 300.99768217 412.55111788 299.52697891 412.54702759 298.05627441 C412.53604434 294.46444338 412.51880368 290.87267398 412.49819946 287.28088379 C413.65755005 287.2767749 414.81690063 287.27266602 416.01138306 287.26843262 C420.35426988 287.24649482 424.69626941 287.1920557 429.03872681 287.1282959 C430.91038443 287.10524275 432.78216945 287.09075025 434.65396118 287.08532715 C451.0417477 287.16448931 451.0417477 287.16448931 464.87319946 279.09338379 C468.4894624 272.83446716 470.4929541 266.61664298 471.89590454 259.55358887 C473.73586332 250.31050181 475.63576235 243.44280128 483.68569946 237.78088379 C488.47318781 235.45553231 493.32857586 235.24277878 498.49819946 236.28088379 C502.48890759 238.19928205 505.94311558 240.65664288 509.49819946 243.28088379 C511.11685151 244.39433543 512.74143568 245.49923755 514.37319946 246.59338379 C515.05124634 247.0638916 515.72929321 247.53439941 516.42788696 248.01916504 C522.70542951 251.84491267 528.58672985 252.07361222 535.72476196 250.92150879 C543.08387129 248.94123937 548.71011285 244.03148318 554.49819946 239.28088379 C555.36831665 238.57318848 555.36831665 238.57318848 556.25601196 237.85119629 C563.34642077 232.04995272 569.88875849 226.14201066 575.82632446 219.14416504 C578.03219144 216.68575721 579.07880154 216.33558787 582.37319946 215.90588379 C585.49819946 216.28088379 585.49819946 216.28088379 587.66205168 218.42880976 C589.78300937 221.7232768 589.99915643 223.40704361 590.00156403 227.28906822 C590.01199502 228.50199464 590.022426 229.71492106 590.03317308 230.96460283 C590.02452508 232.30728604 590.01549846 233.64996686 590.00613403 234.99264526 C590.01074308 236.42170714 590.01709603 237.85076429 590.02504301 239.2798115 C590.04176117 243.20743208 590.03347865 247.13466453 590.02109814 251.06228662 C590.01205924 255.29840761 590.02601215 259.53446119 590.03701782 263.77056885 C590.05482466 272.07218077 590.05095211 280.3736482 590.03936726 288.67526583 C590.03033563 295.42703281 590.02910779 302.17875927 590.03346252 308.93053055 C590.03407546 309.89134797 590.03468839 310.85216538 590.03531989 311.84209848 C590.03659882 313.79408086 590.03789567 315.74606322 590.03921026 317.69804557 C590.05062397 336.01505971 590.03749314 354.33199386 590.01600879 372.64899488 C589.99816558 388.34680665 590.00121744 404.04449998 590.01968384 419.74230957 C590.04112579 437.97803942 590.04949526 456.21369894 590.03723478 474.44943964 C590.03596064 476.39731954 590.03470315 478.34519945 590.03346252 480.29307938 C590.03284542 481.25140413 590.03222832 482.20972888 590.03159252 483.19709378 C590.02814745 489.93127246 590.03395035 496.66540635 590.04338074 503.39957809 C590.05464032 511.62078086 590.05147907 519.84183101 590.03025776 528.06301646 C590.01979595 532.25324616 590.01554117 536.44322213 590.02885437 540.63344955 C590.04088793 544.47939016 590.03403806 548.32484501 590.01294416 552.17074235 C590.00645039 554.20040594 590.01931626 556.23010401 590.03317308 558.2597307 C589.93183287 570.2970276 587.42482701 581.8862489 581.74819946 592.59338379 C581.40530884 593.25725098 581.06241821 593.92111816 580.70913696 594.60510254 C577.62011879 600.39983006 573.93344663 605.43285124 569.49819946 610.28088379 C568.9194104 610.95119629 568.34062134 611.62150879 567.74429321 612.31213379 C555.54061068 625.596488 537.15946816 635.04232993 519.14999723 636.46658873 C516.76681298 636.537962 514.39098495 636.55203469 512.00676632 636.54094601 C511.10210622 636.54475168 510.19744611 636.54855735 509.26537207 636.55247834 C506.24794632 636.56274688 503.23071034 636.55889672 500.21327209 636.55503845 C498.02236167 636.55949342 495.83145285 636.56480832 493.64054638 636.57090718 C487.6303106 636.58506646 481.62012658 636.58675086 475.60987651 636.58631027 C469.12362977 636.58796029 462.63740425 636.60103026 456.15116882 636.61250305 C442.71080644 636.63462007 429.27045662 636.64275739 415.83007844 636.64753806 C415.10003301 636.64779923 414.36998757 636.64806041 413.61781955 636.6483295 C412.88626377 636.64858977 412.15470799 636.64885004 411.40098386 636.64911821 C403.28417217 636.65220388 395.16736372 636.65870983 387.05055428 636.66533089 C362.52208205 636.684975 337.99361332 636.70138149 313.46513271 636.70420742 C312.68103993 636.70430148 311.89694714 636.70439554 311.08909397 636.70449245 C307.91168244 636.70487092 304.7342709 636.70523492 301.55685937 636.70559543 C299.16547989 636.70586715 296.77410042 636.70614383 294.38272095 636.7064209 C293.19741413 636.70655293 293.19741413 636.70655293 291.98816172 636.70668763 C267.16749798 636.70959215 242.34691216 636.731682 217.52627563 636.76794434 C189.62302075 636.80870952 161.71981896 636.83236627 133.81653267 636.83266693 C130.83854011 636.83276375 127.86054756 636.83293047 124.88255501 636.83314705 C124.14933015 636.83319116 123.41610529 636.83323528 122.66066149 636.83328073 C110.88354819 636.83439854 99.10651325 636.85177743 87.32942514 636.87496637 C75.48300405 636.89785834 63.63669726 636.90157977 51.79026198 636.88741707 C45.37801749 636.88025498 38.96604327 636.8810761 32.55382919 636.90382767 C26.67561806 636.92448417 20.79788385 636.92175455 14.9196775 636.90095282 C12.8012456 636.89747075 10.68277882 636.90231302 8.56439262 636.91665726 C-16.94856582 637.07818092 -37.24891375 629.48196588 -56.03695679 611.90979004 C-74.52507684 592.59715691 -78.97958405 567.72899685 -78.88275146 542.06509399 C-78.88621408 540.05135879 -78.89098268 538.03762549 -78.8969332 536.0238961 C-78.90939002 530.52658648 -78.90329709 525.02943426 -78.89397454 519.53212428 C-78.88716242 513.5892564 -78.89767604 507.64641483 -78.90591431 501.70355225 C-78.91846279 490.74626539 -78.91740441 479.78903222 -78.9091799 468.83174256 C-78.90161747 458.70610994 -78.89967045 448.58049555 -78.90324783 438.45486069 C-78.90347699 437.78182167 -78.90370614 437.10878266 -78.90394224 436.41534853 C-78.90487634 433.68287903 -78.90583155 430.95040955 -78.90682153 428.21794008 C-78.91598839 402.61063968 -78.90769464 377.00337093 -78.89153084 351.39607542 C-78.87729841 328.67585786 -78.87856636 305.95569075 -78.89291382 283.23547363 C-78.9090002 257.67644632 -78.9153349 232.11744697 -78.90607703 206.55841529 C-78.90511496 203.83045634 -78.90417643 201.10249738 -78.90324783 198.37453842 C-78.9030106 197.70290468 -78.90277337 197.03127095 -78.90252895 196.33928467 C-78.89912548 186.22465747 -78.90309068 176.11005056 -78.91068649 165.99542618 C-78.91911905 154.48587838 -78.91678458 142.97639194 -78.90084426 131.46685113 C-78.89298473 125.59943447 -78.88983027 119.73211993 -78.89979172 113.86470413 C-78.90878743 108.48454567 -78.90372598 103.10458314 -78.88785906 97.72444223 C-78.88453177 95.78718702 -78.88615857 93.84991496 -78.89348643 91.91267075 C-78.98506801 65.67064779 -73.72724838 42.03429915 -55.18930054 22.40588379 C-47.43091796 15.19004545 -38.95470078 9.64401058 -29.31430054 5.34338379 C-28.685802 5.06091797 -28.05730347 4.77845215 -27.40975952 4.48742676 C-18.51123092 0.73474411 -9.56960763 -0.01615596 0 0 Z " fill="#FAE2BB" transform="translate(242.50180053710938,202.7191162109375)"/>
<path d="M0 0 C0.91092911 -0.00619858 1.82185822 -0.01239716 2.76039124 -0.01878357 C4.68261651 -0.0258721 6.60490331 -0.02272462 8.52709961 -0.01000977 C11.4599776 0.00384635 14.38965738 -0.03021603 17.32226562 -0.06835938 C19.19401119 -0.06931075 21.06576074 -0.06745079 22.9375 -0.0625 C23.80954575 -0.07575821 24.68159149 -0.08901642 25.58006287 -0.10267639 C29.87482055 -0.03737494 32.18906292 0.37058804 36.00268555 2.52832031 C39.32725428 6.51664899 39.92636502 9.7578814 40.65234375 14.8046875 C40.87266769 16.12583809 40.87266769 16.12583809 41.09744263 17.47367859 C41.55862273 20.2721927 41.984781 23.07474984 42.41015625 25.87890625 C42.71775271 27.78357589 43.02762423 29.6878796 43.33984375 31.59179688 C44.09802463 36.246175 44.82485962 40.90449058 45.53515625 45.56640625 C46.12828613 45.77209229 46.72141602 45.97777832 47.33251953 46.18969727 C58.213614 49.98765621 68.77655158 53.78317601 78.85546875 59.4140625 C81.91119392 60.72811341 82.50607769 60.64784383 85.53515625 59.56640625 C87.71173888 58.29447584 87.71173888 58.29447584 89.9140625 56.6875 C90.74784424 56.09912354 91.58162598 55.51074707 92.44067383 54.90454102 C93.31747803 54.27733154 94.19428223 53.65012207 95.09765625 53.00390625 C96.44476685 52.05632446 96.44476685 52.05632446 97.8190918 51.08959961 C101.62146929 48.40583132 105.40163351 45.71404444 109.05078125 42.82421875 C110.43523437 41.73753906 110.43523437 41.73753906 111.84765625 40.62890625 C112.60691406 40.00113281 113.36617187 39.37335938 114.1484375 38.7265625 C117.70755809 36.99651534 119.76250232 37.50420272 123.53515625 38.56640625 C125.9799085 40.25043987 127.99953921 41.82983632 130.16015625 43.81640625 C130.75626709 44.34564697 131.35237793 44.8748877 131.96655273 45.42016602 C137.90937133 50.76032817 143.61154977 56.37450355 149.12548828 62.15576172 C150.49335113 63.52457217 151.98133796 64.76995295 153.46875 66.0078125 C155.53515625 68.56640625 155.53515625 68.56640625 155.72265625 71.8359375 C154.16293054 76.73573371 151.63666261 80.19959282 148.53515625 84.25390625 C147.9537085 85.04120117 147.37226074 85.82849609 146.77319336 86.63964844 C144.12019151 90.21789518 141.41569502 93.7423592 138.6015625 97.1953125 C138.17423828 97.73003174 137.74691406 98.26475098 137.30664062 98.81567383 C136.17377436 100.22191957 135.01355991 101.60600954 133.8515625 102.98828125 C132.21946562 105.52714782 132.21946562 105.52714782 133.10546875 108.43359375 C133.81316406 109.98433594 133.81316406 109.98433594 134.53515625 111.56640625 C135.04691406 112.72914063 135.55867188 113.891875 136.0859375 115.08984375 C136.67310866 116.37372921 137.26035124 117.65758201 137.84765625 118.94140625 C141.447387 126.95550883 144.10209932 135.13479882 146.53515625 143.56640625 C157.72470457 145.80888574 168.81785878 147.91252668 180.1875 148.9765625 C184.55679059 149.74641417 187.9326572 151.04706134 191.18188477 154.12768555 C193.17884056 157.72638507 192.96352714 161.26691532 192.93359375 165.27734375 C192.93646393 166.12309967 192.93933411 166.96885559 192.94229126 167.84024048 C192.94433009 169.62722443 192.93881285 171.41423079 192.92626953 173.20117188 C192.91025277 175.92499238 192.92610325 178.64732012 192.9453125 181.37109375 C192.94332925 183.11068034 192.9394839 184.850266 192.93359375 186.58984375 C192.93966644 187.39940521 192.94573914 188.20896667 192.95199585 189.0430603 C192.89188331 193.92152281 192.30845353 197.37814498 189.53515625 201.56640625 C182.97058047 204.89813764 175.66636748 205.87533486 168.47265625 207.19140625 C167.32732422 207.40796875 166.18199219 207.62453125 165.00195312 207.84765625 C159.52601099 208.87380157 154.05981051 209.8447533 148.53515625 210.56640625 C148.41140625 211.09105469 148.28765625 211.61570312 148.16015625 212.15625 C144.82397042 224.68779804 138.56673943 236.72604885 131.53515625 247.56640625 C134.51362304 253.09577404 137.97849936 257.94127926 141.84765625 262.87890625 C143.00501101 264.38065966 144.16126794 265.8832598 145.31640625 267.38671875 C147.18984587 269.82022511 149.06479555 272.25252988 150.94140625 274.68359375 C151.57046875 275.53179687 152.19953125 276.38 152.84765625 277.25390625 C153.38003906 277.95902344 153.91242188 278.66414063 154.4609375 279.390625 C155.9077405 282.32105871 155.92081023 284.33708392 155.53515625 287.56640625 C154.28515625 289.65625 154.28515625 289.65625 152.53515625 291.50390625 C151.89191406 292.18453125 151.24867188 292.86515625 150.5859375 293.56640625 C148.03861339 296.05065376 145.41942704 298.41246128 142.70703125 300.71484375 C140.25249386 302.80738102 137.86285867 304.963238 135.47265625 307.12890625 C134.62960937 307.88171875 133.7865625 308.63453125 132.91796875 309.41015625 C131.45082067 310.737805 130.00309918 312.08777944 128.58984375 313.47265625 C128.01492188 314.01921875 127.44 314.56578125 126.84765625 315.12890625 C126.36941406 315.60457031 125.89117188 316.08023437 125.3984375 316.5703125 C122.26337564 318.24628897 120.03308827 318.01634771 116.53515625 317.56640625 C113.74863304 316.11599373 111.40314133 314.23242543 108.97265625 312.25390625 C108.28518311 311.72007324 107.59770996 311.18624023 106.8894043 310.63623047 C103.39000111 307.90657552 99.96253662 305.09738206 96.55859375 302.25 C95.93283447 301.73542236 95.3070752 301.22084473 94.66235352 300.69067383 C93.47403185 299.70890559 92.29925723 298.71044941 91.14038086 297.6940918 C89.37647332 296.16500744 89.37647332 296.16500744 86.53515625 294.56640625 C84.07452132 295.26585339 84.07452132 295.26585339 81.53515625 296.56640625 C80.71394287 296.9536084 79.89272949 297.34081055 79.04663086 297.73974609 C78.18561768 298.16465332 77.32460449 298.58956055 76.4375 299.02734375 C74.98633789 299.73503906 74.98633789 299.73503906 73.50585938 300.45703125 C71.50886395 301.43431169 69.51400562 302.41597321 67.52148438 303.40234375 C50.7163829 311.56640625 50.7163829 311.56640625 44.53515625 311.56640625 C44.37958252 312.69135498 44.22400879 313.81630371 44.0637207 314.9753418 C43.47901548 319.16244959 42.86679684 323.34515328 42.24633789 327.52709961 C41.98201666 329.33494029 41.72509286 331.14387905 41.47583008 332.95385742 C41.11545168 335.56104827 40.72832664 338.16308361 40.3359375 340.765625 C40.23050125 341.57102219 40.125065 342.37641937 40.01643372 343.20622253 C39.41626672 347.0173751 38.69897305 349.32200983 36.51855469 352.57495117 C32.32263875 355.37577656 28.94576022 355.28732925 24 355.23046875 C23.08432755 355.23525238 22.16865509 355.24003601 21.22523499 355.2449646 C19.29458899 355.24835911 17.36388517 355.23918806 15.43334961 355.21826172 C12.4783535 355.19145793 9.52714492 355.21803941 6.57226562 355.25 C4.69400204 355.24669642 2.81574081 355.24029127 0.9375 355.23046875 C0.05513168 355.2405899 -0.82723663 355.25071106 -1.73634338 355.26113892 C-7.83596116 355.14453137 -7.83596116 355.14453137 -10.99365234 352.24169922 C-12.8177371 348.92468616 -13.50065495 345.76538554 -14.02734375 342.06640625 C-14.14247314 341.34461182 -14.25760254 340.62281738 -14.3762207 339.87915039 C-14.75808106 337.44405034 -15.11335513 335.00606937 -15.46484375 332.56640625 C-15.6030957 331.62780762 -15.74134766 330.68920898 -15.88378906 329.72216797 C-16.77345695 323.67423377 -17.63280695 317.62252837 -18.46484375 311.56640625 C-18.98691406 311.37119385 -19.50898437 311.17598145 -20.046875 310.97485352 C-30.29835828 307.10473904 -40.11566985 303.08713487 -49.4375 297.27368164 C-52.68727984 295.15011734 -52.68727984 295.15011734 -56.41333008 294.78491211 C-58.81352491 295.69923124 -60.46509524 296.88309184 -62.4765625 298.48046875 C-63.23517578 299.07730469 -63.99378906 299.67414063 -64.77539062 300.2890625 C-65.55978516 300.91683594 -66.34417969 301.54460937 -67.15234375 302.19140625 C-69.47461119 304.02652576 -71.79686274 305.86160905 -74.12255859 307.69238281 C-75.71555142 308.96690991 -77.28837346 310.26697312 -78.84228516 311.58886719 C-84.61589797 316.39315201 -84.61589797 316.39315201 -88.71875 317.23046875 C-92.09442149 316.41416128 -93.77994435 315.21995234 -96.40234375 312.94140625 C-97.34207031 312.12929688 -98.28179688 311.3171875 -99.25 310.48046875 C-100.32486679 309.51271459 -101.39622561 308.54105593 -102.46484375 307.56640625 C-103.0872998 306.99889648 -103.70975586 306.43138672 -104.35107422 305.84667969 C-109.7393707 300.9077393 -115.09637254 295.93818538 -120.26171875 290.765625 C-122.42436718 288.53346817 -122.42436718 288.53346817 -124.83984375 286.62890625 C-126.46484375 284.56640625 -126.46484375 284.56640625 -126.4765625 282.01171875 C-125.00568612 277.00278837 -122.06590103 273.47547927 -118.90234375 269.37890625 C-118.27062256 268.53900146 -117.63890137 267.69909668 -116.98803711 266.83374023 C-114.2597864 263.20807082 -111.49825807 259.60899956 -108.72265625 256.01953125 C-107.99820313 255.065625 -107.27375 254.11171875 -106.52734375 253.12890625 C-105.89957031 252.32582031 -105.27179687 251.52273438 -104.625 250.6953125 C-103.24234404 248.68071781 -103.24234404 248.68071781 -103.79003906 246.65283203 C-104.8935347 243.24093849 -106.57290483 240.08987352 -108.15234375 236.87890625 C-112.28377202 228.32509088 -115.48748218 219.57743614 -118.46484375 210.56640625 C-122.73562015 209.77443224 -127.00647539 208.9828842 -131.27734375 208.19140625 C-132.47294922 207.9696875 -133.66855469 207.74796875 -134.90039062 207.51953125 C-136.08310547 207.30039062 -137.26582031 207.08125 -138.484375 206.85546875 C-140.24249512 206.52724121 -140.24249512 206.52724121 -142.03613281 206.19238281 C-144.25898122 205.78655945 -146.48485844 205.39686368 -148.71386719 205.02636719 C-150.18581543 204.77935059 -150.18581543 204.77935059 -151.6875 204.52734375 C-152.98119507 204.31924072 -152.98119507 204.31924072 -154.30102539 204.10693359 C-157.26988476 203.36530495 -158.74710063 202.06494169 -160.46484375 199.56640625 C-162.97925439 194.53758496 -161.77801491 186.67838134 -161.81494141 181.08251953 C-161.83147966 179.24547641 -161.8587417 177.40849707 -161.89697266 175.57177734 C-161.95189878 172.91860689 -161.97364005 170.26694462 -161.98828125 167.61328125 C-162.01095062 166.79744568 -162.03362 165.98161011 -162.05697632 165.14105225 C-162.04211247 161.10491272 -161.75533235 158.37833077 -159.24462891 155.12597656 C-154.64160709 150.88760658 -150.38440943 150.24318522 -144.30078125 149.27734375 C-143.62689362 149.16919342 -142.95300598 149.06104309 -142.25869751 148.94961548 C-140.84217154 148.72343022 -139.42519719 148.50003711 -138.0078125 148.27929688 C-135.83878734 147.9412416 -133.67130521 147.5944082 -131.50390625 147.24609375 C-120.93130456 145.56640625 -120.93130456 145.56640625 -117.46484375 145.56640625 C-117.39007812 145.01855469 -117.3153125 144.47070312 -117.23828125 143.90625 C-115.29452553 132.18654641 -110.16961977 121.38483497 -104.46875 111.0546875 C-103.31473709 108.70094731 -103.31473709 108.70094731 -103.57421875 106.55078125 C-104.77130845 103.88358139 -106.35463743 101.81334413 -108.15234375 99.50390625 C-108.94898438 98.4571875 -109.745625 97.41046875 -110.56640625 96.33203125 C-112.12325736 94.30290196 -113.6878767 92.28042926 -115.26074219 90.26367188 C-117.19827661 87.77185045 -119.1132992 85.26379824 -121.02734375 82.75390625 C-121.97516724 81.55399048 -121.97516724 81.55399048 -122.94213867 80.32983398 C-125.53634453 76.90499741 -127.29062556 74.23153588 -128.38671875 70.046875 C-126.9275158 64.53776555 -123.23069151 61.51450444 -119.15234375 57.69140625 C-118.33233887 56.89855225 -117.51233398 56.10569824 -116.66748047 55.28881836 C-110.85375182 49.72176396 -104.89988545 44.41011092 -98.46484375 39.56640625 C-97.85382812 38.97730469 -97.2428125 38.38820312 -96.61328125 37.78125 C-93.27335067 35.89267107 -91.093198 36.60095539 -87.46484375 37.56640625 C-84.7890625 39.39453125 -84.7890625 39.39453125 -82.15234375 41.81640625 C-76.9621652 46.38783142 -71.58636168 50.6384461 -66.02734375 54.75390625 C-65.25801514 55.34268555 -64.48868652 55.93146484 -63.69604492 56.53808594 C-62.9610376 57.07723633 -62.22603027 57.61638672 -61.46875 58.171875 C-60.81720947 58.65809326 -60.16566895 59.14431152 -59.49438477 59.64526367 C-56.7611176 60.88580463 -55.29419302 60.43471989 -52.46484375 59.56640625 C-50.14897512 58.38449522 -47.90429176 57.17082734 -45.65234375 55.87890625 C-40.79260585 53.12072606 -36.15409703 51.06269106 -30.79663086 49.47192383 C-24.43934045 47.7007053 -24.43934045 47.7007053 -20.0859375 43.08984375 C-19.53406978 39.86554571 -19.46852306 36.83730849 -19.46484375 33.56640625 C-19.18409 30.91127788 -18.87693107 28.27438063 -18.52734375 25.62890625 C-18.4025061 24.61836182 -18.4025061 24.61836182 -18.27514648 23.58740234 C-17.7149435 19.13253125 -17.03237625 14.72151277 -16.15234375 10.31640625 C-15.94996094 9.300625 -15.74757813 8.28484375 -15.5390625 7.23828125 C-12.6169356 -0.0298453 -6.85159751 -0.03887907 0 0 Z " fill="#F7A047" transform="translate(652.46484375,110.43359375)"/>
<path d="M0 0 C9.29144385 3.5828877 9.29144385 3.5828877 11 7 C11.103125 7.763125 11.20625 8.52625 11.3125 9.3125 C11.800311 12.14639237 11.800311 12.14639237 14.0625 14.125 C16.252835 17.37517451 16.1695915 18.22522135 16 22 C15.79727239 28.81901964 16.84154017 34.90007377 20 41 C24.55984773 45.54446882 30.75109049 49.57220877 37.2890625 50.23046875 C39.86143216 50.18315091 42.4293379 50.10604438 45 50 C45.91652344 49.99355469 46.83304688 49.98710937 47.77734375 49.98046875 C56.73038085 49.64143368 61.71845384 45.98663502 68.203125 40.12109375 C68.76854004 39.61819824 69.33395508 39.11530273 69.91650391 38.59716797 C71.0360801 37.59150121 72.13833609 36.5661337 73.22021484 35.52001953 C76.18392729 32.83303093 77.61731948 31.99959289 81.671875 32.00390625 C84.82718062 32.94827589 86.33179846 33.60439158 88.625 35.875 C91.2547686 38.34448925 93.81275046 40.26150025 97 42 C96.4020697 44.91785198 95.54327243 46.97865855 93.85546875 49.42578125 C93.21061523 50.37420898 93.21061523 50.37420898 92.55273438 51.34179688 C92.10220703 51.99212891 91.65167969 52.64246094 91.1875 53.3125 C89.43627912 55.86089925 87.70463045 58.42018006 86 61 C85.5870166 61.61536621 85.1740332 62.23073242 84.74853516 62.86474609 C83.10404959 65.47682574 81.98193319 67.35963192 82.0703125 70.4921875 C83.27195357 73.73358905 84.53143519 76.94044993 85.875 80.125 C88.42559111 86.30938305 90.45478285 92.480268 92 99 C93.72760864 99.32151526 95.45522262 99.64300182 97.18286133 99.96435547 C98.6493998 100.23907623 100.11538488 100.51676711 101.58081055 100.79736328 C104.77822274 101.40858639 107.96231053 101.99445063 111.18359375 102.46875 C112.05113281 102.6028125 112.91867187 102.736875 113.8125 102.875 C114.56144531 102.97554688 115.31039062 103.07609375 116.08203125 103.1796875 C119.05055462 104.44932071 119.73022171 106.07674094 121 109 C121.47038961 114.00068957 121.21307465 118.98741895 121 124 C120.9690625 124.85207031 120.938125 125.70414062 120.90625 126.58203125 C120.5486117 131.25815207 119.3230452 133.7354404 116 137 C113.27662337 137.82898067 110.96705304 138.36502035 108.1875 138.75 C107.15786133 138.91822266 107.15786133 138.91822266 106.10742188 139.08984375 C102.78855824 139.62362503 99.50567125 140.0467201 96.15625 140.36328125 C93.03381617 140.71102031 93.03381617 140.71102031 91.36328125 142.49609375 C91.01652344 143.13675781 90.66976562 143.77742187 90.3125 144.4375 C89.91933594 145.15550781 89.52617188 145.87351562 89.12109375 146.61328125 C87.57083356 149.91366096 86.20041208 153.2590054 84.91796875 156.671875 C84 159 84 159 82.1875 162.375 C80.82737959 165.38158197 80.90505785 165.99857453 82 169 C83.26584231 170.88044475 83.26584231 170.88044475 84.87109375 172.6796875 C85.73250977 173.70255859 85.73250977 173.70255859 86.61132812 174.74609375 C87.82326022 176.15893437 89.03678876 177.5704072 90.25195312 178.98046875 C93.50442604 182.84847125 95.80843474 185.96543952 97 191 C94.27378679 193.58646501 91.54351135 196.16860252 88.8125 198.75 C87.65911133 199.84441406 87.65911133 199.84441406 86.48242188 200.9609375 C75.82923176 211.01974361 75.82923176 211.01974361 72.375 210.9375 C70 210 70 210 68.58203125 208.57836914 C66.92050141 206.92068544 65.36491116 205.93445368 63.3125 204.80859375 C62.26449219 204.22754883 62.26449219 204.22754883 61.1953125 203.63476562 C60.47085938 203.23966797 59.74640625 202.84457031 59 202.4375 C57.56194161 201.64554435 56.12442071 200.85261174 54.6875 200.05859375 C54.05199219 199.71111084 53.41648437 199.36362793 52.76171875 199.00561523 C51.13160774 198.07512365 49.56174676 197.04116451 48 196 C42.93931849 196.25303408 38.36327223 198.25700702 33.68359375 200.0625 C31.12682361 200.95569481 28.66467865 201.53741564 26 202 C25.96261719 203.27875 25.92523437 204.5575 25.88671875 205.875 C25.82101258 207.5833604 25.75456689 209.29169247 25.6875 211 C25.65366211 212.25876953 25.65366211 212.25876953 25.61914062 213.54296875 C25.32250617 220.50039516 24.60089355 226.38256658 19.54296875 231.47265625 C14.4372691 233.67368002 9.81147964 233.54384334 4.3125 233.4375 C3.26771484 233.44458984 2.22292969 233.45167969 1.14648438 233.45898438 C-6.50507754 233.39493395 -6.50507754 233.39493395 -8.75708008 231.59790039 C-11.47924024 228.09828573 -11.52772389 224.33178433 -12 220.0625 C-12.13027588 218.92083374 -12.13027588 218.92083374 -12.26318359 217.75610352 C-12.92891357 211.84509582 -13.51341977 205.92859594 -14 200 C-14.99644531 199.89945313 -15.99289062 199.79890625 -17.01953125 199.6953125 C-21.92644519 198.99626561 -26.16411762 197.00039353 -30.65820312 194.99609375 C-34.26785594 193.45803577 -36.2889591 192.68817125 -40 194 C-41.76612168 194.95087894 -41.76612168 194.95087894 -43.4609375 196.14453125 C-44.09773438 196.57443359 -44.73453125 197.00433594 -45.390625 197.44726562 C-46.37289062 198.12305664 -46.37289062 198.12305664 -47.375 198.8125 C-48.02210938 199.25142578 -48.66921875 199.69035156 -49.3359375 200.14257812 C-50.61312896 201.00905983 -51.88888274 201.87766502 -53.16308594 202.74853516 C-55.76211273 204.51921715 -58.38020408 206.26022841 -61 208 C-65.484861 205.93049019 -68.80809219 202.91702324 -72.5 199.6875 C-73.16386719 199.11837891 -73.82773437 198.54925781 -74.51171875 197.96289062 C-78.06562625 194.87361574 -81.19437629 191.81478938 -84 188 C-83.62190186 187.48091064 -83.24380371 186.96182129 -82.85424805 186.42700195 C-81.12985529 184.05705238 -79.40865401 181.6848026 -77.6875 179.3125 C-77.09259766 178.49587891 -76.49769531 177.67925781 -75.88476562 176.83789062 C-74.73774781 175.2551342 -73.60173526 173.66433138 -72.47802734 172.06494141 C-71 170 -71 170 -68.89453125 167.48046875 C-67.38829973 163.30380055 -69.36389754 159.95058886 -71 156 C-71.59768201 154.43019242 -72.1940452 152.85988205 -72.7890625 151.2890625 C-73.39878495 149.73348857 -74.01076797 148.17879881 -74.625 146.625 C-75.24281455 145.0549341 -75.86002783 143.48463143 -76.4765625 141.9140625 C-76.74549316 141.2329541 -77.01442383 140.5518457 -77.29150391 139.85009766 C-77.90449812 138.24938431 -78.45796263 136.62611212 -79 135 C-80.12277344 135.01160156 -81.24554688 135.02320313 -82.40234375 135.03515625 C-103.45477267 135.19498266 -103.45477267 135.19498266 -107.19946289 132.29907227 C-109.41608744 129.4687057 -109.5029289 128.02595784 -109.49609375 124.46484375 C-109.49673828 123.40845703 -109.49738281 122.35207031 -109.49804688 121.26367188 C-109.47806641 120.16603516 -109.45808594 119.06839844 -109.4375 117.9375 C-109.44458984 116.83599609 -109.45167969 115.73449219 -109.45898438 114.59960938 C-109.39529921 106.58017786 -109.39529921 106.58017786 -107.79467773 104.23095703 C-105.48326578 102.64557558 -103.62014075 102.32286571 -100.8515625 101.90234375 C-99.84609375 101.74056641 -98.840625 101.57878906 -97.8046875 101.41210938 C-96.75539063 101.25548828 -95.70609375 101.09886719 -94.625 100.9375 C-92.55389611 100.6183757 -90.48354479 100.29432015 -88.4140625 99.96484375 C-87.4957666 99.8268335 -86.5774707 99.68882324 -85.63134766 99.54663086 C-82.87293389 98.97360354 -80.52493795 98.25338844 -78 97 C-76.62770361 94.20414892 -76.62770361 94.20414892 -75.875 90.875 C-74.82889002 86.99798832 -73.78939589 83.30718602 -72.1875 79.625 C-70.53957614 74.59449557 -70.82060312 71.48051088 -73.09765625 66.69140625 C-76.41768324 60.76344719 -80.50642435 56.07904597 -85.33984375 51.32421875 C-87 49 -87 49 -87.0859375 46.4921875 C-85.61273647 43.11124414 -83.6091411 41.6625909 -80.6875 39.4375 C-77.23362224 36.77676907 -74.02634324 34.14016589 -71 31 C-68.77265599 28.98820541 -67.62415098 28.07019775 -64.62304688 27.73266602 C-61.43136071 28.05795421 -60.34804043 28.91733508 -57.96875 31.02734375 C-57.24042969 31.65447266 -56.51210938 32.28160156 -55.76171875 32.92773438 C-54.64216797 33.92256836 -54.64216797 33.92256836 -53.5 34.9375 C-52.01790744 36.24680975 -50.52853671 37.54793707 -49.03125 38.83984375 C-48.37705078 39.42113037 -47.72285156 40.00241699 -47.04882812 40.60131836 C-44.61045728 42.26593067 -42.94129738 42.78150525 -40 43 C-37.7155923 42.35551108 -37.7155923 42.35551108 -35.53125 41.1640625 C-34.71269531 40.75929688 -33.89414062 40.35453125 -33.05078125 39.9375 C-32.20902344 39.504375 -31.36726563 39.07125 -30.5 38.625 C-28.82547916 37.77876435 -27.14846042 36.93744989 -25.46875 36.1015625 C-24.73076172 35.72338379 -23.99277344 35.34520508 -23.23242188 34.95556641 C-20.83463483 33.92921705 -18.56710089 33.42615681 -16 33 C-15.96036133 32.24380371 -15.92072266 31.48760742 -15.87988281 30.70849609 C-15.68865308 27.26266314 -15.46960486 23.81913621 -15.25 20.375 C-15.1571875 18.59029297 -15.1571875 18.59029297 -15.0625 16.76953125 C-14.32038545 5.69965593 -14.32038545 5.69965593 -10 1 C-6.72799921 -0.63600039 -3.53431786 -0.53567915 0 0 Z " fill="#69726E" transform="translate(516,384)"/>
<path d="M0 0 C1.82337251 -0.0165055 3.64668178 -0.04372374 5.46972656 -0.08203125 C8.10808648 -0.13715687 10.74492863 -0.15873182 13.38378906 -0.17333984 C14.59205856 -0.2073439 14.59205856 -0.2073439 15.82473755 -0.24203491 C21.91131382 -0.21961556 25.88449775 1.55348663 30.62597656 5.35009766 C34.50464365 9.52712375 35.73810676 12.59568833 35.79956055 18.23291016 C35.81305038 19.22403809 35.82654022 20.21516602 35.84043884 21.23632812 C35.85609642 22.83951904 35.85609642 22.83951904 35.87207031 24.47509766 C35.90499742 26.73031004 35.93820925 28.98551827 35.97167969 31.24072266 C36.01918048 34.80254367 36.06363318 38.36434654 36.1027832 41.92626953 C36.14239975 45.35938767 36.19395794 48.79216557 36.24707031 52.22509766 C36.25969154 53.82828857 36.25969154 53.82828857 36.27256775 55.46386719 C36.28920975 56.45499512 36.30585175 57.44612305 36.32299805 58.46728516 C36.33845924 59.77608643 36.33845924 59.77608643 36.35423279 61.11132812 C36.48989247 63.63390421 36.48989247 63.63390421 38.62597656 66.35009766 C41.00360909 66.79962 41.00360909 66.79962 43.80664062 66.71899414 C44.88826477 66.72587753 45.96988892 66.73276093 47.08428955 66.73985291 C48.845159 66.73061546 48.845159 66.73061546 50.64160156 66.72119141 C53.11425916 66.73857899 55.58691538 66.75616332 58.05957031 66.77392578 C61.96796249 66.78399263 65.87626338 66.78759753 69.78466797 66.78588867 C73.5497576 66.78945996 77.31413804 66.81681737 81.07910156 66.84619141 C82.82782562 66.83391762 82.82782562 66.83391762 84.61187744 66.82139587 C95.08311155 66.91743085 95.08311155 66.91743085 99.62597656 71.35009766 C103.82485129 76.95546178 104.23023217 81.50011727 104.19238281 88.37744141 C104.19858139 89.32518936 104.20477997 90.27293732 104.21116638 91.24940491 C104.21824173 93.24544248 104.21513066 95.24153936 104.20239258 97.23754883 C104.18853162 100.27552945 104.22262621 103.31042371 104.26074219 106.34814453 C104.26169358 108.2954109 104.25983347 110.24268109 104.25488281 112.18994141 C104.26814102 113.08913803 104.28139923 113.98833466 104.2950592 114.91477966 C104.20300131 121.21484641 102.87069276 125.59816933 98.62597656 130.35009766 C92.60530907 135.23955654 86.66699022 134.95138538 79.12988281 134.95947266 C77.94120102 134.97600891 76.75251923 134.99254517 75.52781677 135.00958252 C71.74798376 135.05799272 67.96855293 135.07941916 64.18847656 135.10009766 C61.61879495 135.12826299 59.04913201 135.15819119 56.47949219 135.18994141 C50.19505981 135.26375016 43.91074023 135.31543366 37.62597656 135.35009766 C37.62011032 135.94176727 37.61424408 136.53343689 37.60820007 137.14303589 C37.54391169 143.3409413 37.45940357 149.53834437 37.36352539 155.73583984 C37.33041728 158.04404039 37.30234213 160.35231916 37.27954102 162.66064453 C37.24573473 165.99236154 37.19340589 169.32337084 37.13769531 172.65478516 C37.13130539 173.67498749 37.12491547 174.69518982 37.11833191 175.74630737 C36.97425251 182.88151801 36.55350195 190.93565326 31.72363281 196.56884766 C31.05203125 196.99166016 30.38042969 197.41447266 29.68847656 197.85009766 C29.01945312 198.29353516 28.35042969 198.73697266 27.66113281 199.19384766 C26.98953125 199.57541016 26.31792969 199.95697266 25.62597656 200.35009766 C25.09246582 200.69556641 24.55895508 201.04103516 24.00927734 201.39697266 C20.55106716 202.77997333 17.13112683 202.71529227 13.45800781 202.75634766 C12.663759 202.7677478 11.86951019 202.77914795 11.05119324 202.79089355 C9.37101537 202.80975865 7.69076409 202.8228477 6.01049805 202.83056641 C3.46365808 202.84990643 0.92010095 202.91193302 -1.62597656 202.97509766 C-16.40100691 203.16701657 -16.40100691 203.16701657 -22.77368164 197.93798828 C-23.30179443 197.41398438 -23.82990723 196.88998047 -24.37402344 196.35009766 C-25.1741687 195.65557495 -25.1741687 195.65557495 -25.99047852 194.94702148 C-33.49682289 186.28300197 -30.91152419 168.22813216 -30.99902344 157.66259766 C-31.03553104 154.47226578 -31.07602602 151.28205682 -31.12167358 148.09184265 C-31.14889424 146.11764303 -31.17024811 144.14335219 -31.18521118 142.16902161 C-31.19547333 141.28687485 -31.20573547 140.40472809 -31.21630859 139.49584961 C-31.22605209 138.32769463 -31.22605209 138.32769463 -31.23599243 137.13594055 C-31.18109579 135.32618763 -31.18109579 135.32618763 -32.37402344 134.35009766 C-33.99918665 134.24286692 -35.62891186 134.20386671 -37.25756836 134.19238281 C-38.29922653 134.18212067 -39.3408847 134.17185852 -40.41410828 134.1612854 C-41.54943497 134.15398407 -42.68476166 134.14668274 -43.85449219 134.13916016 C-46.23926458 134.11108295 -48.62403011 134.08241844 -51.00878906 134.05322266 C-54.78328194 134.01199551 -58.55764802 133.97512476 -62.33227539 133.94873047 C-65.96495339 133.92110011 -69.59704164 133.87521482 -73.22949219 133.82666016 C-74.35469772 133.82340729 -75.47990326 133.82015442 -76.63920593 133.81680298 C-82.26238136 133.72870531 -86.56213701 133.61058359 -91.37402344 130.35009766 C-94.57683744 126.81595806 -95.49371002 123.67609831 -95.53515625 118.97387695 C-95.54956757 117.65186531 -95.54956757 117.65186531 -95.56427002 116.30314636 C-95.57064484 114.87812553 -95.57064484 114.87812553 -95.57714844 113.42431641 C-95.58284851 112.44396927 -95.58854858 111.46362213 -95.59442139 110.4535675 C-95.60386948 108.37815428 -95.61040461 106.30272607 -95.61425781 104.22729492 C-95.623954 101.06027882 -95.65497557 97.89391431 -95.68652344 94.72705078 C-95.69305465 92.7094765 -95.69830466 90.69189759 -95.70214844 88.67431641 C-95.71449524 87.73037521 -95.72684204 86.78643402 -95.73956299 85.81388855 C-95.72187256 80.56294702 -95.33266502 76.8814582 -92.37402344 72.35009766 C-87.75683506 67.96968817 -84.25770399 67.248159 -78.0546875 67.14477539 C-76.46349091 67.11485756 -76.46349091 67.11485756 -74.84014893 67.08433533 C-73.70148376 67.06762283 -72.5628186 67.05091034 -71.38964844 67.03369141 C-70.21891785 67.01291031 -69.04818726 66.99212921 -67.84197998 66.97071838 C-64.10272075 66.90534138 -60.36339139 66.84639275 -56.62402344 66.78759766 C-54.08885994 66.74440119 -51.55370353 66.70078653 -49.01855469 66.65673828 C-42.80378504 66.54967207 -36.58894566 66.44788356 -30.37402344 66.35009766 C-30.36522408 65.39622414 -30.36522408 65.39622414 -30.35624695 64.42308044 C-30.29217441 57.78770516 -30.20771876 51.15280867 -30.11157227 44.51782227 C-30.07837539 42.04360274 -30.05032726 39.56930844 -30.02758789 37.0949707 C-29.99394643 33.53255432 -29.94162357 29.97081994 -29.88574219 26.40869141 C-29.87935226 25.30738388 -29.87296234 24.20607635 -29.86637878 23.07139587 C-29.73715304 16.27818491 -29.46923084 10.42691769 -24.40136719 5.38916016 C-23.71171875 4.92251953 -23.02207031 4.45587891 -22.31152344 3.97509766 C-21.61929688 3.49298828 -20.92707031 3.01087891 -20.21386719 2.51416016 C-14.41654248 -1.15378626 -6.69614322 0.04438504 0 0 Z " fill="#2B3238" transform="translate(316.3740234375,554.64990234375)"/>
<path d="M0 0 C1.10214844 -0.00322266 2.20429687 -0.00644531 3.33984375 -0.00976562 C13.14429605 0.05420174 21.85285863 1.40401668 30.8125 5.4375 C31.49852295 5.74461914 32.1845459 6.05173828 32.89135742 6.36816406 C51.15218975 14.84327697 64.48962209 29.79436926 71.8125 48.390625 C79.63941993 69.91465481 78.11942715 91.4453547 68.55859375 112.140625 C58.84735251 130.43651338 42.63640652 143.80943904 23.01953125 150.25 C2.05368282 156.26502962 -19.02807334 153.60976116 -38.125 143.3125 C-57.4298371 131.59344272 -69.40129295 113.72811155 -74.93359375 92.16015625 C-78.9694688 71.42410859 -74.996804 52.22260467 -64.19921875 34.328125 C-56.20293193 22.70263832 -45.7743533 13.45594406 -33.25 7 C-32.62649658 6.67418945 -32.00299316 6.34837891 -31.3605957 6.01269531 C-21.27287341 1.06977568 -11.11925726 -0.16371109 0 0 Z " fill="#2B3238" transform="translate(667.125,212.6875)"/>
<path d="M0 0 C0.87446777 -0.01023193 1.74893555 -0.02046387 2.64990234 -0.03100586 C16.07380742 0.14896962 26.58728382 5.58987477 36.25 14.75 C45.48153406 24.54202006 50.43901951 36.34956258 50.9375 49.875 C50.37840424 64.68202004 44.84192584 76.27660552 35.4375 87.4375 C24.45387611 97.413892 10.1564243 102.19953759 -4.59765625 101.71484375 C-17.53877969 100.50427753 -28.92953688 95.18545813 -37.8203125 85.59375 C-48.0135022 72.97796365 -51.73815585 58.46000979 -50.5625 42.4375 C-48.02710112 29.08847216 -40.99454527 17.64295832 -30.0625 9.59765625 C-20.15443259 2.94067346 -11.89967286 0.1072324 0 0 Z " fill="#2B3338" transform="translate(521.5625,450.5625)"/>
<path d="M0 0 C10.08274076 7.39400989 17.73063711 17.03086276 20.41015625 29.42578125 C21.72580061 45.14999965 20.0390536 57.00236645 10.01953125 69.625 C1.3458068 78.9349707 -10.40521896 84.40541039 -23.15234375 84.86328125 C-36.73959394 84.26995155 -47.3840948 79.20302988 -57.22265625 70.0234375 C-66.96248145 59.33534549 -69.1952243 48.01595154 -68.90234375 34.10546875 C-68.33069751 22.17235348 -61.96515641 12.05762706 -53.42578125 3.984375 C-37.9343091 -9.16689604 -17.3311653 -10.53462989 0 0 Z " fill="#2A3237" transform="translate(753.58984375,592.57421875)"/>
<path d="M0 0 C8.37070124 6.72961877 15.63016233 15.86223312 17.75 26.66015625 C19.2538387 40.73514659 17.66115664 53.32153154 8.91015625 64.78515625 C1.44863432 73.43685959 -8.45650294 79.88901383 -20.03637695 81.23706055 C-33.72788418 82.09955481 -45.32464927 79.94671041 -56.07421875 70.80859375 C-64.18804677 63.1885078 -70.82580237 52.99902801 -71.30078125 41.57421875 C-71.31526574 39.94537222 -71.31893833 38.31639821 -71.3125 36.6875 C-71.32861328 35.88376953 -71.34472656 35.08003906 -71.36132812 34.25195312 C-71.37054866 22.79083318 -66.6639036 12.61602759 -58.875 4.3125 C-41.60019774 -12.07568162 -19.58460567 -12.39399611 0 0 Z " fill="#2A3237" transform="translate(664,678)"/>
<path d="M0 0 C0.75872504 -0.0060911 1.51745009 -0.01218221 2.2991668 -0.01845789 C4.843324 -0.03511627 7.38698226 -0.03030812 9.93118286 -0.0255127 C11.75453208 -0.03285143 13.57787664 -0.04143708 15.4012146 -0.05117798 C20.35580907 -0.0734243 25.31023738 -0.07632307 30.26487494 -0.07443047 C34.40011137 -0.0743109 38.53531242 -0.08286947 42.67053902 -0.09120798 C52.42638954 -0.1104536 62.18215449 -0.11332178 71.9380188 -0.10656738 C82.00374955 -0.09992668 92.06911385 -0.12278955 102.13477027 -0.15988111 C110.7752344 -0.19056611 119.41558057 -0.20193941 128.0560981 -0.1980443 C133.21734976 -0.19597542 138.37831635 -0.20147744 143.53951645 -0.22593689 C148.39385424 -0.24818135 153.24759595 -0.24634534 158.10193634 -0.22600937 C159.88291256 -0.22259515 161.66392873 -0.22770615 163.44485092 -0.24199295 C165.87799247 -0.26016402 168.30910722 -0.24745456 170.7421875 -0.22705078 C171.44569836 -0.23956863 172.14920921 -0.25208648 172.87403858 -0.26498365 C178.43836607 -0.16506022 180.71998316 1.60400073 184.49807739 5.39440918 C186.48171414 9.36168268 186.04558898 14.08123458 185.49807739 18.39440918 C183.57494109 22.30991469 180.55658758 24.86158184 176.49807739 26.39440918 C174.01002443 26.5852435 171.63507456 26.66868056 169.14801025 26.65510559 C168.40561942 26.65893114 167.66322859 26.66275669 166.89834106 26.66669816 C164.40954192 26.67702078 161.9209738 26.67303743 159.43215942 26.66906738 C157.6482217 26.6734143 155.86428585 26.67859738 154.08035278 26.68455505 C149.23321294 26.69795928 144.38615099 26.69852208 139.53899622 26.69599175 C135.49324027 26.69492289 131.44750015 26.69980329 127.40174758 26.70459718 C117.85685984 26.71569753 108.31201144 26.71612696 98.76712036 26.71008301 C88.91960708 26.7040433 79.07223668 26.71635296 69.22474778 26.73765308 C60.77113087 26.75526607 52.31755945 26.76127086 43.86392486 26.75801533 C38.81452862 26.75620168 33.76523428 26.75884681 28.71585464 26.77272987 C23.96669859 26.78529847 19.21776528 26.78337325 14.46861267 26.77031898 C12.72634176 26.76795146 10.98405522 26.77069421 9.24180222 26.77894211 C6.86164674 26.78939662 4.48224043 26.78131973 2.10211182 26.76863098 C1.41416475 26.77600527 0.72621769 26.78337955 0.01742375 26.7909773 C-4.53807015 26.73995705 -7.63008044 25.776419 -11.50192261 23.39440918 C-14.93227081 19.51269938 -16.16435979 16.42850371 -15.89254761 11.35144043 C-15.0842256 7.30174715 -12.70221651 4.57428601 -9.83016777 1.751091 C-6.60377835 -0.12894464 -3.63068629 -0.02732314 0 0 Z " fill="#293035" transform="translate(262.5019226074219,312.6055908203125)"/>
<path d="M0 0 C0.99 0 1.98 0 3 0 C2.77898366 5.23459761 2.49969055 10.45976888 2.14453125 15.68701172 C2.01958386 17.68659207 1.94280386 19.6890736 1.875 21.69140625 C1.6235077 24.83113037 1.35362833 27.15222828 0 30 C-3.40866922 32.58477287 -6.82443154 34.08795161 -11 35 C-11.99 34.67 -12.98 34.34 -14 34 C-12.56570999 33.32645501 -11.12742943 32.66140299 -9.6875 32 C-8.48673828 31.443125 -8.48673828 31.443125 -7.26171875 30.875 C-5 30 -5 30 -2 30 C-2.02320313 28.80761719 -2.04640625 27.61523438 -2.0703125 26.38671875 C-2.08907178 24.82031876 -2.10727181 23.253912 -2.125 21.6875 C-2.14175781 20.90181641 -2.15851562 20.11613281 -2.17578125 19.30664062 C-2.18222656 18.54931641 -2.18867187 17.79199219 -2.1953125 17.01171875 C-2.20578613 16.31522217 -2.21625977 15.61872559 -2.22705078 14.90112305 C-2 13 -2 13 0 10 C0.24150773 7.48415109 0.24150773 7.48415109 0.125 4.8125 C0.10695313 3.91144531 0.08890625 3.01039063 0.0703125 2.08203125 C0.04710937 1.39496094 0.02390625 0.70789063 0 0 Z " fill="#282623" transform="translate(632,126)"/>
<path d="M0 0 C2 2 2 2 2.22705078 5.89892578 C2.22673341 7.58108793 2.21539396 9.26327019 2.1953125 10.9453125 C2.1924826 11.8303244 2.18965271 12.7153363 2.18673706 13.62716675 C2.1755224 16.45991412 2.1504157 19.29234784 2.125 22.125 C2.11497185 24.04296419 2.10584572 25.96093333 2.09765625 27.87890625 C2.07557889 32.58605876 2.04104045 37.29297616 2 42 C0.515 42.495 0.515 42.495 -1 43 C-0.67 28.81 -0.34 14.62 0 0 Z " fill="#243646" transform="translate(846,266)"/>
<path d="M0 0 C0 0.99 0 1.98 0 3 C-4.87070187 4.88989379 -9.22391338 5.4014447 -14.375 5.625 C-15.47908203 5.68300781 -15.47908203 5.68300781 -16.60546875 5.7421875 C-18.40327406 5.83557998 -20.20160108 5.9188371 -22 6 C-22 5.01 -22 4.02 -22 3 C-18.89643568 2.49621233 -15.79205777 1.99762587 -12.6875 1.5 C-11.80642578 1.35691406 -10.92535156 1.21382813 -10.01757812 1.06640625 C-9.17001953 0.93105469 -8.32246094 0.79570312 -7.44921875 0.65625 C-6.66893311 0.53056641 -5.88864746 0.40488281 -5.0847168 0.27539062 C-3 0 -3 0 0 0 Z " fill="#E79E4C" transform="translate(523,258)"/>
<path d="M0 0 C0.66 0.66 1.32 1.32 2 2 C1.34 2 0.68 2 0 2 C0.05185519 5.91774905 0.14692869 9.83329005 0.25 13.75 C0.26417969 14.86117188 0.27835937 15.97234375 0.29296875 17.1171875 C0.32519531 18.18710937 0.35742188 19.25703125 0.390625 20.359375 C0.41157227 21.34389648 0.43251953 22.32841797 0.45410156 23.34277344 C1.13273857 26.64612103 2.45789577 27.86534105 5 30 C2.625 29.6875 2.625 29.6875 0 29 C-2.24305946 25.63541082 -2.25653373 24.46483729 -2.265625 20.52734375 C-2.26949219 18.93116211 -2.26949219 18.93116211 -2.2734375 17.30273438 C-2.26570313 16.19220703 -2.25796875 15.08167969 -2.25 13.9375 C-2.25773437 12.82310547 -2.26546875 11.70871094 -2.2734375 10.56054688 C-2.27085937 9.49771484 -2.26828125 8.43488281 -2.265625 7.33984375 C-2.26336914 6.36394287 -2.26111328 5.38804199 -2.25878906 4.38256836 C-2 2 -2 2 0 0 Z " fill="#5F6869" transform="translate(409,488)"/>
<path d="M0 0 C2.72536486 3.32824861 4.57625316 6.9319446 6.375 10.8125 C6.67664063 11.46250977 6.97828125 12.11251953 7.2890625 12.78222656 C15.80726253 31.57821242 15.80726253 31.57821242 14 37 C13.34 37 12.68 37 12 37 C11.86722656 36.39671875 11.73445312 35.7934375 11.59765625 35.171875 C11.42105469 34.37265625 11.24445312 33.5734375 11.0625 32.75 C10.88847656 31.96109375 10.71445312 31.1721875 10.53515625 30.359375 C10.35855469 29.58078125 10.18195312 28.8021875 10 28 C9.86078125 27.3709375 9.7215625 26.741875 9.578125 26.09375 C7.70542739 19.31154785 4.93293625 12.61087394 1.6875 6.375 C0 3 0 3 0 0 Z " fill="#E8AB5F" transform="translate(783,216)"/>
<path d="M0 0 C1.38058594 0.2165625 1.38058594 0.2165625 2.7890625 0.4375 C17.1693416 2.5462171 30.65670706 2.08629715 45 0 C44.34 1.32 43.68 2.64 43 4 C42.319375 3.814375 41.63875 3.62875 40.9375 3.4375 C37.96146772 2.8501231 37.96146772 2.8501231 34.828125 3.4609375 C30.80237535 4.02782878 26.86859475 4.19213819 22.8125 4.1875 C22.07507568 4.18669434 21.33765137 4.18588867 20.57788086 4.18505859 C4.00157699 4.00157699 4.00157699 4.00157699 0 0 Z " fill="#EEBB73" transform="translate(645,363)"/>
<path d="M0 0 C-0.99 0.33 -1.98 0.66 -3 1 C-3 1.66 -3 2.32 -3 3 C-4.423125 3.37125 -4.423125 3.37125 -5.875 3.75 C-9.05852032 4.66239093 -9.05852032 4.66239093 -10.1875 6.9375 C-10.455625 7.618125 -10.72375 8.29875 -11 9 C-12.5 10.75 -12.5 10.75 -14 12 C-14.66 12 -15.32 12 -16 12 C-16.33 12.66 -16.66 13.32 -17 14 C-16.85060294 9.06989713 -14.21427432 6.80615557 -10.88671875 3.55078125 C-7.278793 0.5852605 -4.6627301 -0.25904056 0 0 Z " fill="#1E2327" transform="translate(406,472)"/>
<path d="M0 0 C0 0.66 0 1.32 0 2 C-2.20095617 2.57061827 -4.22687131 3.01985124 -6.5 3.21875 C-9.19964477 3.75738839 -9.19964477 3.75738839 -10.36328125 6.28515625 C-10.83314453 7.65994141 -10.83314453 7.65994141 -11.3125 9.0625 C-11.63863281 9.98160156 -11.96476562 10.90070313 -12.30078125 11.84765625 C-12.53152344 12.55792969 -12.76226562 13.26820313 -13 14 C-13.33 14 -13.66 14 -14 14 C-14.4560284 8.29964499 -13.60412752 5.45215753 -10 1 C-6.78548731 -0.60725635 -3.56387464 -0.05748185 0 0 Z " fill="#626A6A" transform="translate(516,384)"/>
<path d="M0 0 C2.94059894 -0.25160205 4.56746605 -0.26119751 7.12817383 1.28515625 C7.81419678 1.87167969 8.50021973 2.45820313 9.20703125 3.0625 C10.33334961 4.00996094 10.33334961 4.00996094 11.48242188 4.9765625 C12.25134766 5.64429688 13.02027344 6.31203125 13.8125 7 C14.60076172 7.66773438 15.38902344 8.33546875 16.20117188 9.0234375 C18.14367278 10.67162009 20.07582402 12.33049903 22 14 C18.55260571 14 17.9576302 13.48482592 15.3125 11.4453125 C14.61382812 10.91292969 13.91515625 10.38054687 13.1953125 9.83203125 C12.47085937 9.26871094 11.74640625 8.70539063 11 8.125 C9.56291609 7.02289473 8.12543148 5.9213117 6.6875 4.8203125 C6.05199219 4.32805176 5.41648437 3.83579102 4.76171875 3.32861328 C3.21553304 2.16254584 1.61134516 1.07423011 0 0 Z " fill="#515A5D" transform="translate(449,412)"/>
<path d="M0 0 C0.66 0.33 1.32 0.66 2 1 C-12.59681093 8.85193622 -12.59681093 8.85193622 -20 9 C-19.67 8.01 -19.34 7.02 -19 6 C-15.7 5.67 -12.4 5.34 -9 5 C-9 4.34 -9 3.68 -9 3 C-9.66 2.67 -10.32 2.34 -11 2 C-9.68 1.67 -8.36 1.34 -7 1 C-6.67 1.66 -6.34 2.32 -6 3 C-4.576875 2.2265625 -4.576875 2.2265625 -3.125 1.4375 C-2.09375 0.963125 -1.0625 0.48875 0 0 Z " fill="#26231F" transform="translate(705,354)"/>
<path d="M0 0 C4.82675589 2.41337795 7.69984002 5.86062408 11 10 C7.59787701 8.38617243 4.89675481 6.41396234 2 4 C2.33 4.99 2.66 5.98 3 7 C3.12781786 9.67394964 3.04391871 12.32095857 3 15 C2.34 15 1.68 15 1 15 C-0.00109515 11.68929162 -0.10356134 8.69915231 -0.0625 5.25 C-0.05347656 4.26515625 -0.04445313 3.2803125 -0.03515625 2.265625 C-0.02355469 1.51796875 -0.01195312 0.7703125 0 0 Z " fill="#262526" transform="translate(531,401)"/>
<path d="M0 0 C0.33 0.66 0.66 1.32 1 2 C0.01 3.485 0.01 3.485 -1 5 C-1.24055468 7.05709596 -1.24055468 7.05709596 -1.125 9.1875 C-1.08375 10.445625 -1.0425 11.70375 -1 13 C-2.32 12.67 -3.64 12.34 -5 12 C-5.75 9.875 -5.75 9.875 -6 7 C-2.90666667 1.45333333 -2.90666667 1.45333333 0 0 Z " fill="#F2A552" transform="translate(532,384)"/>
<path d="M0 0 C0.66 0.33 1.32 0.66 2 1 C1.2884375 2.0828125 1.2884375 2.0828125 0.5625 3.1875 C-1.67186308 7.52112514 -1.46000353 12.19512603 -1.59375 16.9765625 C-2.03165741 20.23560417 -2.8074133 21.60914748 -5 24 C-5.38866045 16.35634448 -4.28903298 9.31860543 -2 2 C-1.34 1.34 -0.68 0.68 0 0 Z " fill="#EEAE61" transform="translate(640,113)"/>
<path d="M0 0 C2.0245738 1.93254772 3.42105792 3.63158688 5 6 C4.8125 8.5625 4.8125 8.5625 4 11 C3.01 11.66 2.02 12.32 1 13 C-1.57214212 9.21743805 -0.80424637 6.34293039 0 2 C0 1.34 0 0.68 0 0 Z " fill="#272627" transform="translate(545,350)"/>
<path d="M0 0 C1.32 0 2.64 0 4 0 C4 0.66 4 1.32 4 2 C3.01 2.33 2.02 2.66 1 3 C1.99 3.99 2.98 4.98 4 6 C2.41632253 5.85795259 0.83306682 5.71119847 -0.75 5.5625 C-1.63171875 5.48128906 -2.5134375 5.40007812 -3.421875 5.31640625 C-5.69350452 5.03761535 -7.79851823 4.61209423 -10 4 C-9.67 3.34 -9.34 2.68 -9 2 C-7.329375 2.061875 -7.329375 2.061875 -5.625 2.125 C-1.95633975 2.41121859 -1.95633975 2.41121859 0 0 Z " fill="#F29A3E" transform="translate(690,209)"/>
<path d="M0 0 C0.33 0 0.66 0 1 0 C1.31111883 5.91125786 0.96464909 9.81186409 -2 15 C-4.1875 15.9375 -4.1875 15.9375 -6 16 C-6 16.66 -6 17.32 -6 18 C-6.66 18 -7.32 18 -8 18 C-8 17.01 -8 16.02 -8 15 C-6.34614767 13.65080468 -4.678298 12.31866272 -3 11 C-0.67674917 7.6312863 -0.4621364 4.00518216 0 0 Z " fill="#F1E9CF" transform="translate(449,322)"/>
<path d="M0 0 C3.95680442 2.08831345 6.58783295 4.19619811 9 8 C8.75 10.3125 8.75 10.3125 8 12 C3 6.25 3 6.25 3 4 C1.68 3.67 0.36 3.34 -1 3 C-0.67 2.01 -0.34 1.02 0 0 Z " fill="#272B31" transform="translate(533,197)"/>
<path d="M0 0 C1.18873401 4.1057044 1.22810171 7.89277243 0 12 C-2.5625 15 -2.5625 15 -5 17 C-5.33 16.34 -5.66 15.68 -6 15 C-5.09239638 12.40267775 -4.12932108 9.90549025 -3.0625 7.375 C-2.77181641 6.66859375 -2.48113281 5.9621875 -2.18164062 5.234375 C-1.46132512 3.48672427 -0.73154306 1.74298085 0 0 Z " fill="#EDA95A" transform="translate(740,311)"/>
<path d="M0 0 C0.33 0 0.66 0 1 0 C1 1.98 1 3.96 1 6 C1.66 6.33 2.32 6.66 3 7 C2.01 7.33 1.02 7.66 0 8 C-0.12375 8.639375 -0.2475 9.27875 -0.375 9.9375 C-1 12 -1 12 -3.3125 13.3125 C-6.1397026 14.03573787 -7.2823481 13.80544481 -10 13 C-8.72125 12.71125 -7.4425 12.4225 -6.125 12.125 C-3.86954633 11.4244347 -3.86954633 11.4244347 -2 10 C-0.68018903 6.72158956 -0.26345309 3.51051244 0 0 Z " fill="#E8AB62" transform="translate(633,146)"/>
<path d="M0 0 C0 3.75973885 -0.96542407 4.45677629 -3.4375 7.1875 C-4.07558594 7.90292969 -4.71367188 8.61835937 -5.37109375 9.35546875 C-5.90863281 9.89816406 -6.44617188 10.44085937 -7 11 C-7.33 11 -7.66 11 -8 11 C-8.3125 8.8125 -8.3125 8.8125 -8 6 C-5.43879574 2.95424358 -3.79480342 1.26493447 0 0 Z " fill="#21282F" transform="translate(609,681)"/>
<path d="M0 0 C-9 3 -9 3 -18 6 C-18.66 5.34 -19.32 4.68 -20 4 C-14.09922999 0.58376473 -6.7487766 -2.17702471 0 0 Z " fill="#F2AE5C" transform="translate(652,214)"/>
<path d="M0 0 C1.21236328 0.01353516 1.21236328 0.01353516 2.44921875 0.02734375 C3.37154297 0.04474609 3.37154297 0.04474609 4.3125 0.0625 C2.44272903 2.50960376 1.48747517 3.03181493 -1.60546875 3.57421875 C-3.22388672 3.66123047 -3.22388672 3.66123047 -4.875 3.75 C-5.96167969 3.81574219 -7.04835938 3.88148438 -8.16796875 3.94921875 C-9.41513672 4.00529297 -9.41513672 4.00529297 -10.6875 4.0625 C-7.4284026 0.49301238 -4.73606476 -0.06863862 0 0 Z " fill="#1B2125" transform="translate(503.6875,359.9375)"/>
<path d="M0 0 C3.41541438 0.71860965 6.39462631 1.98501914 9.5625 3.4375 C10.51253906 3.86933594 11.46257813 4.30117188 12.44140625 4.74609375 C15 6 15 6 18 8 C12.70624037 7.5513763 9.48164999 6.98776666 5 4 C4.2575 3.835 3.515 3.67 2.75 3.5 C2.1725 3.335 1.595 3.17 1 3 C0.67 2.01 0.34 1.02 0 0 Z " fill="#E6AA60" transform="translate(625,354)"/>
<path d="M0 0 C4.10839064 1.45002023 7.50344613 3.3979134 11 6 C11 6.66 11 7.32 11 8 C6.50202887 6.31326082 2.27113698 4.18326108 -2 2 C-1.34 1.34 -0.68 0.68 0 0 Z " fill="#5A6465" transform="translate(563,577)"/>
<path d="M0 0 C5.445 1.485 5.445 1.485 11 3 C11 3.99 11 4.98 11 6 C11.66 6.33 12.32 6.66 13 7 C7.53228436 6.59992325 4.04064621 4.53855408 0 1 C0 0.67 0 0.34 0 0 Z " fill="#202429" transform="translate(395,528)"/>
<path d="M0 0 C0.33 0 0.66 0 1 0 C1.06058594 0.78503906 1.12117188 1.57007813 1.18359375 2.37890625 C1.62820214 7.95361148 2.12124643 13.47640616 3 19 C2.01 19 1.02 19 0 19 C0 12.73 0 6.46 0 0 Z " fill="#343A3E" transform="translate(417,658)"/>
<path d="M0 0 C2.1875 0.35546875 2.1875 0.35546875 4 1 C2.61447798 2.01423834 1.21605712 3.01087002 -0.1875 4 C-0.96480469 4.556875 -1.74210938 5.11375 -2.54296875 5.6875 C-5.28336637 7.151369 -6.94100837 7.26080213 -10 7 C-9.46375 6.773125 -8.9275 6.54625 -8.375 6.3125 C-6.22096079 5.12210991 -4.79761599 3.95499177 -3 2.3125 C-2.01 1.549375 -1.02 0.78625 0 0 Z " fill="#1E2225" transform="translate(610,599)"/>
<path d="M0 0 C2.66666667 1.33333333 5.33333333 2.66666667 8 4 C8 6.31 8 8.62 8 11 C5.37575087 8.62567936 3.75794238 6.05729109 2 3 C1.34 2.01 0.68 1.02 0 0 Z " fill="#212527" transform="translate(508,343)"/>
<path d="M0 0 C-0.99 0.33 -1.98 0.66 -3 1 C-3 1.66 -3 2.32 -3 3 C-1.68 3 -0.36 3 1 3 C1 3.66 1 4.32 1 5 C1.99 5.33 2.98 5.66 4 6 C3.01 6.495 3.01 6.495 2 7 C-0.3828125 6.00390625 -0.3828125 6.00390625 -3.125 4.5625 C-4.03507813 4.08941406 -4.94515625 3.61632812 -5.8828125 3.12890625 C-6.58148437 2.75636719 -7.28015625 2.38382813 -8 2 C-4.77208445 -0.1519437 -3.71599191 -0.20086443 0 0 Z " fill="#253644" transform="translate(725,160)"/>
<path d="M0 0 C3.2826932 1.49076434 5.93077441 3.38620321 8.75 5.625 C9.94882812 6.57246094 9.94882812 6.57246094 11.171875 7.5390625 C11.77515625 8.02117187 12.3784375 8.50328125 13 9 C11.33333333 9 9.66666667 9 8 9 C7.34 8.01 6.68 7.02 6 6 C3.94074861 5.27617533 3.94074861 5.27617533 2 5 C2 4.01 2 3.02 2 2 C1.34 2 0.68 2 0 2 C0 1.34 0 0.68 0 0 Z " fill="#F0B05C" transform="translate(568,152)"/>
<path d="M0 0 C0.99 0.33 1.98 0.66 3 1 C-1.29 3.97 -5.58 6.94 -10 10 C-10 9.01 -10 8.02 -10 7 C-7.91796875 5.140625 -7.91796875 5.140625 -5.1875 3.25 C-3.84751953 2.29867187 -3.84751953 2.29867187 -2.48046875 1.328125 C-1.25263672 0.67070313 -1.25263672 0.67070313 0 0 Z " fill="#495357" transform="translate(476,575)"/>
<path d="M0 0 C0.66 0 1.32 0 2 0 C2.33 4.29 2.66 8.58 3 13 C1 12 1 12 0.375 10.4375 C-0.16368951 6.93601819 -0.05903219 3.54193167 0 0 Z " fill="#202529" transform="translate(466,304)"/>
<path d="M0 0 C0 3 0 3 -1.875 5.1875 C-4 7 -4 7 -6 7 C-6.33 7.66 -6.66 8.32 -7 9 C-6.5047783 5.33535945 -5.9791794 3.29167646 -3 1 C-2.01 0.67 -1.02 0.34 0 0 Z " fill="#222830" transform="translate(396,477)"/>
<path d="M0 0 C0.99 0 1.98 0 3 0 C3.08159574 4.16138263 2.98248524 7.9472484 2 12 C1.67 12 1.34 12 1 12 C0.67 8.04 0.34 4.08 0 0 Z " fill="#1B232C" transform="translate(632,126)"/>
<path d="M0 0 C0.33 0 0.66 0 1 0 C1.33 4.29 1.66 8.58 2 13 C-1.25 6.5 -1.25 6.5 -2 4 C-1.125 1.6875 -1.125 1.6875 0 0 Z " fill="#EDAA59" transform="translate(695,144)"/>
<path d="M0 0 C-0.33 0.99 -0.66 1.98 -1 3 C-5.455 3.495 -5.455 3.495 -10 4 C-4.7826087 0 -4.7826087 0 0 0 Z " fill="#EADFC2" transform="translate(775,834)"/>
<path d="M0 0 C-0.99 1.485 -0.99 1.485 -2 3 C-2.9590625 2.7525 -2.9590625 2.7525 -3.9375 2.5 C-7.97586652 1.84067485 -11.91807258 1.91996221 -16 2 C-16 1.67 -16 1.34 -16 1 C-13.8973294 0.63705686 -11.79278943 0.28493028 -9.6875 -0.0625 C-8.51574219 -0.25972656 -7.34398437 -0.45695312 -6.13671875 -0.66015625 C-3 -1 -3 -1 0 0 Z " fill="#EDAE63" transform="translate(690,364)"/>
<path d="M0 0 C0.33 0 0.66 0 1 0 C1.21278058 4.46839215 0.59138085 7.82262526 -1 12 C-1.66 12 -2.32 12 -3 12 C-2.49202991 7.6822542 -1.80317221 3.96697886 0 0 Z " fill="#FB9C3B" transform="translate(541,240)"/>
<path d="M0 0 C-0.639375 0.12375 -1.27875 0.2475 -1.9375 0.375 C-2.618125 0.58125 -3.29875 0.7875 -4 1 C-4.33 1.66 -4.66 2.32 -5 3 C-5.66 2.67 -6.32 2.34 -7 2 C-7 2.66 -7 3.32 -7 4 C-9.97 3.505 -9.97 3.505 -13 3 C-4.58823529 -1.52941176 -4.58823529 -1.52941176 0 0 Z " fill="#151919" transform="translate(780,836)"/>
<path d="M0 0 C0.33 0.99 0.66 1.98 1 3 C-0.1875 4.5 -0.1875 4.5 -2 6 C-4.6875 6.1875 -4.6875 6.1875 -7 6 C-2.25 1.125 -2.25 1.125 0 0 Z " fill="#F1AA56" transform="translate(715,349)"/>
<path d="M0 0 C2 3 2 3 1.8125 5.0625 C1 7 1 7 -2 9 C-2 5.20442119 -1.49821059 3.37097383 0 0 Z " fill="#282B2E" transform="translate(844,306)"/>
<path d="M0 0 C2.60018816 3.90028225 2.15085514 7.47434569 2 12 C0.26337666 8.77484237 -0.8905928 5.48670834 -2 2 C-1.34 1.34 -0.68 0.68 0 0 Z " fill="#E9AB5F" transform="translate(690,116)"/>
<path d="M0 0 C3.3 0.33 6.6 0.66 10 1 C8 3 8 3 6.0546875 3.1953125 C4.03645833 3.13020833 2.01822917 3.06510417 0 3 C0 2.01 0 1.02 0 0 Z " fill="#3A3F44" transform="translate(721,586)"/>
<path d="M0 0 C0.33 0.99 0.66 1.98 1 3 C-0.8125 6.1875 -0.8125 6.1875 -3 9 C-3.66 9 -4.32 9 -5 9 C-3.7508258 5.54074837 -2.32472205 2.85306797 0 0 Z " fill="#5F6968" transform="translate(603,439)"/>
<path d="M0 0 C2.64 0.33 5.28 0.66 8 1 C6.68 2.32 5.36 3.64 4 5 C2.68 4.34 1.36 3.68 0 3 C0 2.01 0 1.02 0 0 Z " fill="#EFA655" transform="translate(582,407)"/>
<path d="M0 0 C0.99 0.33 1.98 0.66 3 1 C0.42215154 3.64752004 -1.91648098 5.94432065 -5 8 C-4.34 6.35 -3.68 4.7 -3 3 C-2.34 3 -1.68 3 -1 3 C-0.67 2.01 -0.34 1.02 0 0 Z " fill="#5D6666" transform="translate(604,579)"/>
<path d="M0 0 C0.33 0.66 0.66 1.32 1 2 C2.65 1.34 4.3 0.68 6 0 C4.35 1.65 2.7 3.3 1 5 C-1.475 4.01 -1.475 4.01 -4 3 C-2.68 2.01 -1.36 1.02 0 0 Z " fill="#F1AA5B" transform="translate(572,417)"/>
<path d="M0 0 C2.1875 -0.3125 2.1875 -0.3125 5 0 C7.8125 2.5 7.8125 2.5 10 5 C5.75354935 5 3.61475228 3.18249194 0 1 C0 0.67 0 0.34 0 0 Z " fill="#596364" transform="translate(449,412)"/>
<path d="M0 0 C3.875 1.75 3.875 1.75 5 4 C4.34 4 3.68 4 3 4 C3 4.66 3 5.32 3 6 C2.01 5.67 1.02 5.34 0 5 C0 3.35 0 1.7 0 0 Z " fill="#2C2A2B" transform="translate(741,407)"/>
<path d="M0 0 C1 4 1 4 0.00390625 5.703125 C-1.33072917 7.13541667 -2.66536458 8.56770833 -4 10 C-4.66 9.67 -5.32 9.34 -6 9 C-4.02 6.03 -2.04 3.06 0 0 Z " fill="#EFB061" transform="translate(733,328)"/>
<path d="M0 0 C0.99 0.33 1.98 0.66 3 1 C3 3.31 3 5.62 3 8 C2.34 8 1.68 8 1 8 C0.67 5.36 0.34 2.72 0 0 Z " fill="#EFE2C2" transform="translate(167,775)"/>
<path d="M0 0 C3.65316671 1.24976756 4.78065836 1.67098753 7 5 C6.01 5.495 6.01 5.495 5 6 C4.67 5.34 4.34 4.68 4 4 C2.35 4 0.7 4 -1 4 C-0.67 2.68 -0.34 1.36 0 0 Z " fill="#E4D9C0" transform="translate(478,603)"/>
<path d="M0 0 C1.5625 1.25 1.5625 1.25 3 3 C2.6875 5.1875 2.6875 5.1875 2 7 C1.01 6.34 0.02 5.68 -1 5 C-0.67 3.35 -0.34 1.7 0 0 Z " fill="#535E5F" transform="translate(430,428)"/>
<path d="M0 0 C0 3.17370278 -0.30933342 4.3794668 -2 7 C-4.125 8.25 -4.125 8.25 -6 9 C-4.47291037 5.56404834 -2.40072955 2.88087546 0 0 Z " fill="#F2B161" transform="translate(537,376)"/>
<path d="M0 0 C0.25 2.3125 0.25 2.3125 0 5 C-2 6.8125 -2 6.8125 -4 8 C-3.34 6.35 -2.68 4.7 -2 3 C-2.66 3 -3.32 3 -4 3 C-4 2.34 -4 1.68 -4 1 C-1 0 -1 0 0 0 Z " fill="#F5AB56" transform="translate(612,232)"/>
<path d="M0 0 C0.33 0.66 0.66 1.32 1 2 C1.66 2 2.32 2 3 2 C3 3.32 3 4.64 3 6 C2.01 6 1.02 6 0 6 C-0.66 5.01 -1.32 4.02 -2 3 C-1.34 2.01 -0.68 1.02 0 0 Z " fill="#2B2927" transform="translate(567,145)"/>
<path d="M0 0 C0.33 0.66 0.66 1.32 1 2 C1.66 2 2.32 2 3 2 C3 3.98 3 5.96 3 8 C2.67 7.01 2.34 6.02 2 5 C1.01 5.33 0.02 5.66 -1 6 C-0.67 4.02 -0.34 2.04 0 0 Z " fill="#3B362D" transform="translate(631,136)"/>
</svg>
